<?xml version="1.0" encoding="utf-8"?>
<!-- Generator: Adobe Illustrator 22.0.0, SVG Export Plug-In . SVG Version: 6.00 Build 0)  -->
<svg version="1.1" id="Capa_1" xmlns="http://www.w3.org/2000/svg" xmlns:xlink="http://www.w3.org/1999/xlink" x="0px" y="0px"
	 viewBox="0 0 36 36" style="enable-background:new 0 0 36 36;" xml:space="preserve">
<style type="text/css">
	.st0{fill:#F1F1F1;}
</style>
<rect class="st0" width="36" height="36"/>
<path d="M26.4,23.2c1.8-2.4,2.8-5.4,2.8-8.6C29.3,6.6,22.7,0,14.6,0S0,6.6,0,14.6s6.6,14.6,14.6,14.6c3.2,0,6.2-1.1,8.6-2.8l9.6,9.6
	l3.2-3.2C36,32.8,26.4,23.2,26.4,23.2L26.4,23.2z M14.6,24.8C9,24.8,4.5,20.2,4.5,14.6S9,4.5,14.6,4.5S24.8,9,24.8,14.6
	S20.2,24.8,14.6,24.8L14.6,24.8z"/>
</svg>
