<?xml version="1.0" encoding="utf-8"?>
<!-- Generator: Adobe Illustrator 22.0.0, SVG Export Plug-In . SVG Version: 6.00 Build 0)  -->
<svg version="1.1" id="Calque_1" xmlns="http://www.w3.org/2000/svg" xmlns:xlink="http://www.w3.org/1999/xlink" x="0px" y="0px"
	 viewBox="0 0 85 85" style="enable-background:new 0 0 85 85;" xml:space="preserve">
<style type="text/css">
	.st0{fill:#248A41;}
</style>
<path d="M406.2,167.4c-3.7,0-7.1,1.6-9.5,4.1l-35.8-17.9c0.1-0.7,0.2-1.4,0.2-2.1s-0.1-1.4-0.2-2.1l35.8-17.9
	c2.4,2.5,5.8,4.1,9.5,4.1c7.3,0,13.3-5.9,13.3-13.3c0-7.4-5.9-13.3-13.3-13.3c-7.3,0-13.3,5.9-13.3,13.3c0,0.7,0.1,1.4,0.2,2.1
	l-35.8,17.9c-2.4-2.5-5.8-4.1-9.5-4.1c-7.4,0-13.3,6-13.3,13.3s5.9,13.3,13.3,13.3c3.7,0,7.1-1.6,9.5-4.1l35.8,17.9
	c-0.1,0.7-0.2,1.4-0.2,2.1c0,7.3,5.9,13.3,13.3,13.3c7.4,0,13.3-5.9,13.3-13.3C419.5,173.4,413.6,167.4,406.2,167.4z"/>
<path class="st0" d="M71.7,58.4c-3.7,0-7.1,1.6-9.5,4.1L26.4,44.6c0.1-0.7,0.2-1.4,0.2-2.1s-0.1-1.4-0.2-2.1l35.8-17.9
	c2.4,2.5,5.8,4.1,9.5,4.1C79,26.6,85,20.7,85,13.3S79.1,0,71.7,0c-7.3,0-13.3,5.9-13.3,13.3c0,0.7,0.1,1.4,0.2,2.1L22.8,33.3
	c-2.4-2.5-5.8-4.1-9.5-4.1C5.9,29.2,0,35.2,0,42.5s5.9,13.3,13.3,13.3c3.7,0,7.1-1.6,9.5-4.1l35.8,17.9c-0.1,0.7-0.2,1.4-0.2,2.1
	C58.4,79,64.3,85,71.7,85S85,79.1,85,71.7C85,64.4,79.1,58.4,71.7,58.4z"/>
<g>
	<path d="M238.6,151.5c14.1-14.2,28.3-28.4,42.3-42.5c2.4,2.5,5,5,7.6,7.6c-9.6,9.7-19.4,19.4-29.3,29.4c21.6,0,42.9,0,64.3,0
		c0,3.6,0,7.1,0,10.7c-21.3,0-42.7,0-64,0c9.8,9.9,19.6,19.7,29.3,29.4c-2.8,2.8-5.3,5.4-7.8,7.9
		C266.9,179.8,252.8,165.7,238.6,151.5z"/>
</g>
<path d="M175.4,129.4c4.6-3.3,10.1-4.9,15.6-4.9c0.7,0,1.5,0,2.2,0.1c0.3,0,0.6,0.1,0.9,0.1c0.6,0.1,1.1,0.2,1.7,0.3
	c0.3,0.1,0.7,0.2,1,0.2c0.5,0.1,1.1,0.3,1.6,0.4c0.3,0.1,0.5,0.2,0.8,0.3c0.6,0.2,1.2,0.4,1.8,0.7c0.1,0.1,0.3,0.1,0.4,0.2
	c0.7,0.3,1.4,0.6,2,1c0,0,0.1,0,0.1,0c2.2,1.2,4.3,2.8,6.1,4.6c0,0,0.1,0.1,0.1,0.1c0.6,0.6,1.1,1.2,1.6,1.8
	c0.1,0.1,0.2,0.3,0.3,0.4c3.6,4.6,5.8,10.5,5.8,16.8h-6.2c-0.2,0-0.3,0.1-0.4,0.2c-0.1,0.2-0.1,0.3,0,0.5l10.4,15.8
	c0.1,0.1,0.2,0.2,0.4,0.2s0.3-0.1,0.4-0.2l10.4-15.8c0.1-0.1,0.1-0.3,0-0.5c-0.1-0.2-0.2-0.2-0.4-0.2h-6.2c0-7.5-2.3-14.4-6.2-20.1
	c0-0.1-0.1-0.2-0.1-0.2c-0.4-0.6-0.9-1.1-1.3-1.7c-0.2-0.2-0.3-0.4-0.5-0.6c-0.6-0.8-1.3-1.5-2-2.2c-0.1-0.1-0.1-0.1-0.2-0.2
	c-2.3-2.4-5-4.4-7.9-6c-0.1,0-0.1-0.1-0.2-0.1c-0.8-0.5-1.7-0.9-2.6-1.2c-0.2-0.1-0.4-0.2-0.6-0.3c-0.7-0.3-1.5-0.6-2.3-0.8
	c-0.4-0.1-0.7-0.3-1.1-0.4c-0.7-0.2-1.4-0.4-2-0.5c-0.5-0.1-0.9-0.2-1.4-0.3c-0.2,0-0.4-0.1-0.6-0.1c-0.6-0.1-1.3-0.2-2-0.3
	c-0.2,0-0.5-0.1-0.7-0.1c-1.2-0.1-2.3-0.2-3.5-0.2c-7.1,0-14.1,2.2-20.1,6.4c-1.9,1.4-2.4,4-1,5.9
	C170.9,130.3,173.5,130.8,175.4,129.4 M155.6,151.5c0,7.4,2.3,14.4,6.2,20.1c0.1,0.1,0.1,0.2,0.2,0.3c0.5,0.7,1,1.4,1.5,2
	c0.1,0.1,0.1,0.2,0.2,0.2c3.6,4.4,8,7.7,13.1,10c0.1,0.1,0.3,0.1,0.4,0.2c0.8,0.3,1.6,0.6,2.5,0.9c0.3,0.1,0.6,0.2,0.9,0.3
	c0.7,0.2,1.5,0.4,2.2,0.6c0.4,0.1,0.8,0.2,1.2,0.3c0.2,0,0.4,0.1,0.6,0.1c0.6,0.1,1.1,0.1,1.7,0.2c0.4,0,0.8,0.1,1.1,0.1
	c0.9,0.1,1.9,0.1,2.8,0.1c0.2,0,0.3,0,0.5,0c0,0,0.1,0,0.1,0c7.1,0,14.1-2.2,20-6.4c1.9-1.3,2.4-4,1-5.9c-1.3-1.9-4-2.4-5.9-1
	c-4.6,3.3-10,4.9-15.5,4.9c-0.8,0-1.6,0-2.3-0.1c-0.2,0-0.5-0.1-0.7-0.1c-0.6-0.1-1.3-0.2-1.9-0.3c-0.3-0.1-0.5-0.1-0.8-0.2
	c-0.6-0.1-1.2-0.3-1.8-0.5c-0.2-0.1-0.4-0.1-0.6-0.2c-0.7-0.2-1.3-0.5-2-0.7c-0.1,0-0.1-0.1-0.2-0.1c-3.9-1.7-7.4-4.3-10-7.6
	c0,0,0,0,0-0.1c-3.8-4.7-6.1-10.6-6.1-17.1h6.2c0.2,0,0.3-0.1,0.4-0.2s0.1-0.3,0-0.5L160.2,135c-0.1-0.1-0.2-0.2-0.4-0.2
	c-0.2,0-0.3,0.1-0.4,0.2l-10.4,15.8c-0.1,0.1-0.1,0.3,0,0.5c0.1,0.2,0.2,0.2,0.4,0.2L155.6,151.5L155.6,151.5z"/>
</svg>
